# xmcd
#
# Track frame offsets: 
#        150
#        9938
#        51589
#        85649
#        112351
#        141596
#        179061
#        213516
#        245538
#        258976
#        305679
#        320756
#
# Disc length: 4480 seconds
#
# Revision: 3
# Processed by: cddbd v1.5.2PL0 Copyright (c) Steve Scherf et al.
# Submitted via: ExactAudioCopyFreeDBPlugin 1.0
#
DISCID=bb117e0c
DTITLE=Soweto Kinch - Conversations With The Unseen
DYEAR=2003
DGENRE=Jazz
TTITLE0=Intro
TTITLE1=Doxology
TTITLE2=Conversations with the Unseen
TTITLE3=Elision
TTITLE4=Spokes and Pedals
TTITLE5=Intermission - Split Decision
TTITLE6=Snakehips
TTITLE7=Mungo's Adventure
TTITLE8=The Flame Thrower
TTITLE9=Equiano's Tears
TTITLE10=Good Nyooz
TTITLE11=Outro
EXTD=YEAR: 2003
EXTT0=
EXTT1=
EXTT2=
EXTT3=
EXTT4=
EXTT5=
EXTT6=
EXTT7=
EXTT8=
EXTT9=
EXTT10=
EXTT11=
PLAYORDER=
